<?xml version="1.0" encoding="utf-8"?>
<!-- Generator: Adobe Illustrator 26.0.2, SVG Export Plug-In . SVG Version: 6.00 Build 0)  -->
<svg version="1.1" id="Layer_1" xmlns="http://www.w3.org/2000/svg" xmlns:xlink="http://www.w3.org/1999/xlink" x="0px" y="0px"
	 viewBox="0 0 300 300" style="enable-background:new 0 0 300 300;" xml:space="preserve">
<style type="text/css">
	.st0{fill:#FDD800;}
	.st1{fill:#010101;}
</style>
<g>
	<path class="st0" d="M142.02,87.38c7.92,18.97,18.42,36.1,35.19,48.76c4.36,3.29,8.47,4.64,14.13,3.52
		c11.74-2.33,23.62-4.34,35.45,0.38c2.99,1.19,6.73-0.27,9.81,1.48c0.71,0.4,1.51,1.13,1.69,1.85c0.25,1-0.72,1.61-1.63,1.63
		c-7.46,0.2-10.93,6.34-15.94,10.67c8.16-0.47,15.91-0.71,23.61-1.42c9.89-0.91,17.43,2.86,24.33,9.01V66.04
		c0-16.85-13.66-30.52-30.52-30.52H72.37c-7.53,0-14.41,2.73-19.73,7.25c29.56,6.69,57.22,18.03,82.24,35.8
		C138.17,80.91,140.45,83.62,142.02,87.38z"/>
	<path class="st0" d="M239.36,192.09c-2.29-0.87-4.7-1.49-6.91-2.54c-13.14-6.27-27.08-2.01-40.6-3.15
		c-1.91-0.16-3.2,1.29-4.58,2.38c-4.44,3.53-9.12,6.86-14.43,8.77c-13.45,4.85-23.14,14.52-32.52,24.61
		c-5.59,6.01-6.06,5.99-13.36,2.73c-5.56-2.48-10.2-5.99-14.63-10.01c-6.22-5.64-6.01-9.39,1.32-13.15
		c8.2-4.2,15.73-9.34,23.18-14.74c8.82-6.4,6.58-14.6,0.77-20.98c-14.26-15.67-28.26-31.53-40.18-49.1
		c-6.87-10.12-15.22-18.53-25.7-25.21c-7.97-5.08-16.86-9.62-23.29-16.07c-2.1-2.11-4.31-3.6-6.58-4.79v160.98
		c0,16.85,13.66,30.52,30.52,30.52h165.77c16.85,0,30.52-13.66,30.52-30.52v-23.09c-1.52-1.5-3.05-2.98-4.64-4.41
		C256.97,197.96,247.98,195.35,239.36,192.09z"/>
	<g>
		<path class="st1" d="M295.48,217.55c-2.58-19.81-9.69-37.31-24.1-51.72c-0.9-0.9-1.8-1.75-2.72-2.57
			c-6.9-6.16-14.44-9.92-24.33-9.01c-7.71,0.71-15.46,0.95-23.61,1.42c5.01-4.34,8.47-10.48,15.94-10.67
			c0.91-0.02,1.89-0.63,1.63-1.63c-0.18-0.72-0.98-1.45-1.69-1.85c-3.08-1.74-6.82-0.28-9.81-1.48c-11.83-4.72-23.71-2.7-35.45-0.38
			c-5.66,1.12-9.77-0.23-14.13-3.52c-16.78-12.66-27.27-29.79-35.19-48.76c-1.57-3.76-3.84-6.47-7.14-8.82
			C109.86,60.8,82.2,49.46,52.63,42.77c-2.99-0.68-5.99-1.32-9.01-1.9c-10.21-1.97-20.51-3.47-30.79-5.02
			c-7.31-1.1-8.53,0.4-6.22,6.95c0.15,0.43,0.15,1.08-0.08,1.44c-2.01,3.06,0.43,4.03,2.39,5.2c0.9,0.54,2.57,0.81,2.71,1.46
			c1.36,6.39,7,5.94,11.43,7.47c0.85,0.29,2.84,0.31,2.08,1.56c-2.67,4.37,1.05,4.81,3.4,5.76c4.48,1.82,9.01,2.91,13.3,5.14
			c2.28,1.18,4.49,2.68,6.58,4.79c6.43,6.46,15.32,11,23.29,16.07c10.48,6.68,18.82,15.08,25.7,25.21
			c11.93,17.57,25.92,33.43,40.18,49.1c5.81,6.38,8.04,14.58-0.77,20.98c-7.45,5.41-14.98,10.54-23.18,14.74
			c-7.34,3.76-7.55,7.51-1.32,13.15c4.44,4.02,9.07,7.53,14.63,10.01c7.3,3.26,7.78,3.28,13.36-2.73
			c9.38-10.09,19.07-19.76,32.52-24.61c5.31-1.92,9.99-5.24,14.43-8.77c1.38-1.1,2.66-2.55,4.58-2.38
			c13.52,1.14,27.46-3.12,40.6,3.15c2.2,1.05,4.61,1.68,6.91,2.54c8.62,3.27,17.61,5.87,24.66,12.23c1.58,1.43,3.12,2.91,4.64,4.41
			c5.36,5.29,10.47,10.84,16.45,15.49c2.71,2.11,5.95,4.11,8.36,1.73C295.13,224.31,295.9,220.78,295.48,217.55z"/>
	</g>
</g>
</svg>
